<svg xmlns="http://www.w3.org/2000/svg" width="140.561" height="114.174" viewBox="0 0 140.561 114.174">
  <path id="blender" d="M73.266,67.577A16.624,16.624,0,0,1,79.3,55.828a20.442,20.442,0,0,1,25.9,0,16.588,16.588,0,0,1,6.021,11.743,16.3,16.3,0,0,1-5.066,12.609,20.356,20.356,0,0,1-27.819,0,16.3,16.3,0,0,1-5.066-12.6m-30.226,9.47a34.854,34.854,0,0,0,1.5,8.188,43.176,43.176,0,0,0,9.33,16.147A48.183,48.183,0,0,0,70.2,113.1a53.411,53.411,0,0,0,42.853-.07,48.523,48.523,0,0,0,16.311-11.772,43.5,43.5,0,0,0,9.324-16.176,40.786,40.786,0,0,0,1.464-18A41.718,41.718,0,0,0,134.2,50.8a45.472,45.472,0,0,0-10.847-11.965h.012L79.451,5.121l-.117-.088c-2.882-2.214-7.725-2.2-10.893.012-3.2,2.237-3.567,5.945-.72,8.287l-.006.006L86.022,28.232l-55.814.059h-.076c-4.615.006-9.049,3.034-9.927,6.864-.9,3.895,2.226,7.128,7.028,7.145v.012l28.288-.059L5.036,81.006l-.2.146C.075,84.8-1.46,90.863,1.539,94.7c3.045,3.906,9.517,3.912,14.331.023L43.42,72.18a42.441,42.441,0,0,0-.369,4.867Zm70.807,10.2a31.851,31.851,0,0,1-44.464.07,26.414,26.414,0,0,1-6.068-9.5A25.078,25.078,0,0,1,64.973,57.2a27.538,27.538,0,0,1,6.753-8.03,32.093,32.093,0,0,1,39.79-.059,27.37,27.37,0,0,1,6.747,8.006,25.067,25.067,0,0,1,3.057,9.992,24.809,24.809,0,0,1-1.4,10.606,26.589,26.589,0,0,1-6.062,9.523" transform="translate(0 -3.379)" fill="#af73ff"/>
</svg>
