<svg xmlns="http://www.w3.org/2000/svg" width="88.13" height="115.96" viewBox="0 0 88.13 115.96">
  <g id="document" transform="translate(-7.313 -3.938)">
    <path id="Path_1" data-name="Path 1" d="M26.11,32.616H52.491a1.435,1.435,0,0,0,1.45-1.45h0a8.58,8.58,0,0,0-3.1-6.639L28.719,6.09a9.311,9.311,0,0,0-5.972-2.145h0A2.14,2.14,0,0,0,20.6,6.09V27.108A5.506,5.506,0,0,0,26.11,32.616Z" transform="translate(41.502 0.022)" fill="#af73ff"/>
    <path id="Path_2" data-name="Path 2" d="M54.566,27.13V3.938H16.589a9.3,9.3,0,0,0-9.277,9.277v97.407a9.3,9.3,0,0,0,9.277,9.277H86.166a9.3,9.3,0,0,0,9.277-9.277V40.175H67.612A13.065,13.065,0,0,1,54.566,27.13Z" transform="translate(0 0)" fill="#af73ff"/>
  </g>
</svg>
